<?xml version="1.0"?><svg version="1.2" baseProfile="tiny-ps" viewBox="0 0 300 300" xmlns="http://www.w3.org/2000/svg" xmlns:xlink="http://www.w3.org/1999/xlink"><title>Ecoh</title><g><g fill="#fff" transform="matrix(.1 0 0 -.1 0 300)"><path d="M0 1500V0h3000v3000H0V1500z"/></g><g fill="#e6e6e6" transform="matrix(.1 0 0 -.1 0 300)"><path d="m690 2917-56-12-45-27c-54-32-100-81-131-141l-22-42-4-86-4-86 27-62 28-61 49-46 49-45 47-22 47-22h1700l56 26 57 27 41 41c51 51 76 101 90 177l11 60-10 52c-14 77-34 116-85 170l-45 49-63 29-62 29-810 2-810 2-55-12zm1504-801c-90-29-162-96-206-192l-23-49-3-347-3-347 16-63 16-63 32-48 32-47 40-29c22-16 58-37 80-46l40-18h81l81-1 55 27 56 28 41 40c49 49 78 107 92 183l10 58-3 337-3 336-33 67-33 67-41 36c-23 19-62 45-87 57l-45 22-75 3-76 3-41-14zM671 1824c-66-18-104-40-153-91l-37-38-27-58-26-59 4-86 4-87 26-50 26-50 39-37 38-37 60-28 60-28h900l67 33 67 33 36 41c19 23 45 61 56 86l22 44 5 67 4 67-16 57-17 57-42 52-43 53-68 35-69 35-431 2-431 2-54-15zM654 716c-23-7-62-27-87-44l-45-32-31-41c-17-23-38-64-47-91l-16-49 4-77 3-77 24-49 24-49 40-40 39-39 57-27 56-26h1710l46 23c26 13 65 39 87 58l41 35 32 65 33 66v156l-33 66-32 65-45 40-46 40-54 21-55 20-832-1H695l-41-13z"/></g><g fill="#b1b1b1" transform="matrix(.1 0 0 -.1 0 300)"><path d="M648 2905c-21-8-58-28-83-45l-44-31-31-44c-17-25-37-63-45-86l-15-42v-126l20-55 21-54 40-46 40-45 67-33 67-33h1670l52 18 52 18 51 46 51 46 25 50 26 49 8 52 8 51-10 55-10 55-26 49-26 48-44 39-44 38-54 21-55 20-837-1H685l-37-14zm1545-793c-29-10-70-31-92-46l-40-28-35-51c-19-29-40-70-48-92l-13-40v-730l28-61 29-61 41-41 42-41 60-27 59-27h142l59 27 60 27 42 41 41 41 29 61 28 61 3 322 4 322-11 66-10 66-21 44c-12 24-39 63-62 85l-40 42-56 25-55 26-66 4-66 4-52-19zM698 1830l-47-8-52-28-51-28-39-44-38-44-21-54-20-55v-128l20-55 21-54 38-44 39-44 48-26 49-26 59-11 60-11h731l59 10c75 12 135 41 186 92l42 40 26 56 27 57v160l-26 56-27 57-39 39c-47 47-110 79-182 93l-54 10-381-1-381-1-47-8zM636 706c-82-34-128-77-174-161l-27-50V305l27-50 26-51 47-43 46-43 47-21 47-22h1700l55 26 55 26 42 42 42 42 21 43c11 24 25 68 29 98l9 54-8 46c-13 66-35 115-74 163l-34 41-64 35-63 34-845 2-845 3-59-24z"/></g><g fill="#666" transform="matrix(.1 0 0 -.1 0 300)"><path d="m636 2895-59-24-48-47-48-47-23-51-23-51v-170l25-50 24-50 48-47 48-46 56-21 56-21 851 2 852 3 54 30 53 29 39 44 38 44 22 57 21 56-4 76-4 75-23 47c-12 25-40 64-61 86l-39 40-53 28-53 28-845 2-845 3-59-25zm1558-786-62-19-52-46-51-47-27-51-27-51-3-381-3-381 21-57 22-57 51-53 52-53 58-21 58-22h128l58 22 58 21 52 53 51 53 22 57 21 57-3 381-3 381-27 51-27 51-51 46-52 47-65 20-65 20-37-1c-20 0-64-9-97-20zM654 1816c-82-26-146-84-195-176l-24-45v-170l26-56 26-56 37-36c20-21 60-49 89-65l52-27h940l53 30 54 29 43 48 44 49 17 52 18 52v120l-18 52-17 52-46 51-46 51-51 27-51 27-455 2-455 2-41-13zm30-1095c-17-5-52-18-77-30l-45-22-42-45-42-45-21-47-22-47V315l28-57 28-56 41-37c22-21 66-49 97-64l56-26h1670l52 18 52 18 49 44 48 43 29 54 30 53v190l-27 50-26 51-47 43-46 43-47 21-47 22-830 2-830 1-31-7z"/></g><g fill="#363636" transform="matrix(.1 0 0 -.1 0 300)"><path d="M670 2906c-91-24-172-95-212-184l-21-47-1-80v-80l22-50 23-50 42-43 42-44 50-26 50-27 839-3 839-2 51 15 51 15 49 37 49 38 36 65 36 65v170l-24 52-23 52-49 46-50 46-47 22-47 22-830 2-830 2-45-13zm1482-816-60-31-37-41c-21-22-47-61-59-87l-21-46v-770l26-56 26-56 37-36c20-21 60-49 89-64l52-28h180l52 28c66 34 116 84 151 150l27 52v780l-21 46c-12 26-38 65-59 87l-37 41-60 31-61 30h-164l-61-30zM665 1816c-65-21-99-42-144-91l-43-46-21-47-21-47v-160l21-47 21-47 42-45 42-46 57-27 56-28h920l46 21c26 12 65 38 87 59l41 37 31 60 30 61v164l-30 61-31 60-41 37c-22 21-61 47-87 59l-46 21-445 2-445 2-40-13zm27-1096c-23-5-65-21-93-36l-50-28-31-35c-17-19-43-60-57-91l-25-55-1-75v-76l33-67 34-68 49-39 49-38 48-16 48-16 850 2 849 3 43 23c24 13 61 39 82 58l39 36 28 56 28 57v170l-22 47c-12 25-40 66-62 91l-41 44-63 29-62 29-815 2-815 1-43-8z"/></g><g transform="matrix(.1 0 0 -.1 0 300)"><path d="M679 2906c-102-27-172-87-217-185l-25-54-1-66v-66l17-52 18-52 45-50 45-50 57-28 57-28h1690l50 19 50 20 51 48 52 49 23 52 23 52v80l-1 80-20 46c-42 93-119 158-220 184l-57 15-796-1H725l-46-13zm1498-806c-26-10-68-35-92-55l-44-36-33-67-33-67v-760l28-56 27-57 46-42 45-42 47-21 47-22h160l47 22 47 21 45 42 46 42 27 57 28 56v760l-33 67-33 67-44 36-44 36-51 20-50 19h-68l-67-1-48-19zM685 1821c-59-15-104-40-148-80l-44-41-29-63-28-62v-140l26-56c14-31 42-74 61-96l36-39 58-30 58-29h910l57 27 57 27 45 46 45 46 20 55 21 55v129l-19 50-20 51-36 44-36 44-67 33-67 33-435 2-435 1-30-7zM649 705c-113-42-188-131-210-251l-10-55 12-57c14-72 30-103 82-159l41-45 51-26 50-27h1720l49 24 49 24 40 40 39 39 26 57 27 56v150l-26 55c-14 31-40 72-57 91l-31 35-53 30-53 29-855 2-855 2-36-14z"/></g></g></svg>